<svg width="1462" height="242" viewBox="0 0 1462 242" fill="none" xmlns="http://www.w3.org/2000/svg">
<path d="M4.76837e-07 240V1.99999H47V85.4H82V1.99999H129V240H82V129.4H47V240H4.76837e-07ZM146.93 119.6C146.93 106.4 148.996 93.9333 153.13 82.2C157.263 70.3333 163.063 59.3333 170.53 49.2C177.863 39.2 186.596 30.5333 196.73 23.2C206.996 15.8667 217.996 10.2 229.73 6.19999C235.596 4.2 241.663 2.66666 247.93 1.59999C254.33 0.533325 260.796 -9.53674e-06 267.33 -9.53674e-06C280.796 -9.53674e-06 293.463 2.13332 305.33 6.39998C317.196 10.5333 328.063 16.1333 337.93 23.2C349.263 31.6 358.463 41 365.53 51.4C372.596 61.6667 377.863 71.8667 381.33 82C383.33 88 384.863 94.1333 385.93 100.4C386.996 106.667 387.53 113.067 387.53 119.6C387.53 132.667 385.463 145.4 381.33 157.8C377.33 170.2 371.663 181.533 364.33 191.8C356.863 201.933 347.996 210.8 337.73 218.4C327.596 225.867 316.73 231.6 305.13 235.6C292.996 239.867 280.396 242 267.33 242C253.996 242 241.33 239.867 229.33 235.6C217.33 231.333 206.396 225.533 196.53 218.2C186.53 210.733 177.796 202 170.33 192C162.996 182 157.263 170.667 153.13 158C151.13 152 149.596 145.8 148.53 139.4C147.463 132.867 146.93 126.267 146.93 119.6ZM193.93 120C193.93 128.133 195.196 136.133 197.73 144C200.263 151.867 203.73 158.8 208.13 164.8C212.93 171.467 218.396 177.133 224.53 181.8C230.663 186.333 237.263 189.733 244.33 192C251.796 194.667 259.53 196 267.53 196C275.53 196 283.196 194.733 290.53 192.2C297.863 189.533 304.53 185.867 310.53 181.2C316.53 176.667 321.796 171.267 326.33 165C330.863 158.6 334.33 151.6 336.73 144C337.93 140.267 338.863 136.4 339.53 132.4C340.196 128.4 340.53 124.267 340.53 120C340.53 112.133 339.263 104.467 336.73 97C334.196 89.4 330.73 82.6 326.33 76.6C316.996 63.9333 304.996 55 290.33 49.8C282.996 47.2667 275.396 46 267.53 46C261.13 46 254.196 47.0667 246.73 49.2C239.263 51.2 231.796 54.9333 224.33 60.4C218.196 64.9333 212.796 70.2667 208.13 76.4C203.596 82.5333 200.13 89.2667 197.73 96.6C196.53 100.333 195.596 104.2 194.93 108.2C194.263 112.067 193.93 116 193.93 120ZM488.414 169.2L479.814 240H422.614L389.414 1.99999H436.414L450.414 123.4C450.547 125 450.747 127.4 451.014 130.6C451.281 133.8 451.481 136.467 451.614 138.6C451.614 140.067 451.614 141.6 451.614 143.2C451.747 144.667 451.814 146.133 451.814 147.6C451.814 149.2 451.881 150.8 452.014 152.4C452.014 154.133 452.014 155.867 452.014 157.6V168.2L451.814 210H455.814C455.814 207.333 455.881 204.533 456.014 201.6C456.014 198.8 456.014 195.933 456.014 193C456.014 187 456.147 181 456.414 175C456.681 169 456.947 163 457.214 157C457.481 151.8 457.881 146 458.414 139.6C458.947 133.067 459.547 127.733 460.214 123.6L477.414 1.99999H513.614L530.814 123.6C531.481 127.733 532.081 133.067 532.614 139.6C533.147 146 533.547 151.8 533.814 157C534.081 163 534.347 169 534.614 175C534.881 181 535.014 187 535.014 193C535.014 195.933 535.081 198.8 535.214 201.6C535.214 204.533 535.214 207.333 535.214 210H539.214L538.814 161.6V155.8C538.814 154.733 538.881 153.533 539.014 152.2C539.014 151 539.014 149.733 539.014 148.4C539.014 144.933 539.081 142 539.214 139.6C539.481 137.2 539.747 134.333 540.014 131C540.014 129.667 540.081 128.4 540.214 127.2C540.347 125.867 540.481 124.6 540.614 123.4L554.614 1.99999H601.614L568.414 240H511.214L502.814 169.2C502.547 166.267 502.214 162.8 501.814 158.8C501.414 154.667 501.014 150.533 500.614 146.4C500.214 142.133 499.947 138.333 499.814 135C499.281 128.867 498.881 122.867 498.614 117C498.347 111.133 498.147 105.2 498.014 99.2C497.881 96.5333 497.814 93.7333 497.814 90.8C497.681 88.1333 497.614 85.4667 497.614 82.8H493.614C493.614 87.6 493.547 93 493.414 99C493.414 104.867 493.214 110.867 492.814 117C492.414 123 492.014 129 491.614 135C491.214 140.867 490.747 146.8 490.214 152.8C489.947 155.6 489.681 158.4 489.414 161.2C489.014 164 488.681 166.667 488.414 169.2ZM681.825 1.99999L697.025 97.2C697.958 103.2 698.758 109.8 699.425 117C700.225 124.067 700.892 131.8 701.425 140.2C701.825 146.6 702.092 152.133 702.225 156.8C702.492 161.333 702.692 165.933 702.825 170.6C702.958 175.133 703.158 180.733 703.425 187.4C703.558 191.4 703.625 195.267 703.625 199V210H707.625C707.625 202.667 707.692 195.133 707.825 187.4C708.092 179.667 708.358 171.8 708.625 163.8C708.892 155.4 709.292 147.467 709.825 140C710.358 132.4 711.025 124.933 711.825 117.6C712.225 114 712.625 110.533 713.025 107.2C713.425 103.733 713.892 100.4 714.425 97.2L729.425 1.99999H795.625V240H748.625V211.8C748.625 201.4 748.892 189.933 749.425 177.4C749.958 164.733 750.692 152.467 751.625 140.6C752.558 127.933 753.558 115.4 754.625 103C755.692 90.6 756.892 78.3333 758.225 66.2C758.758 60.2 759.358 54.3333 760.025 48.6C760.558 42.8667 761.092 37.3333 761.625 32H757.625C756.825 40.2667 755.958 48.0667 755.025 55.4C754.092 62.7333 753.092 70.1333 752.025 77.6C751.092 85.0667 750.025 93.3333 748.825 102.4C747.758 110 746.492 118.133 745.025 126.8C743.692 135.467 742.292 144.067 740.825 152.6C739.358 161.133 737.958 169 736.625 176.2C735.558 182.067 734.492 187.8 733.425 193.4C732.225 199 731.092 204.467 730.025 209.8L723.625 240H687.625L681.225 209.8C679.625 201.8 678.092 194.267 676.625 187.2C675.292 180.133 673.958 172.867 672.625 165.4C671.292 157.8 669.892 149.267 668.425 139.8C666.025 125.4 663.892 111.933 662.025 99.4C660.158 86.7333 658.692 75.6 657.625 66C656.825 60.1333 656.092 54.3333 655.425 48.6C654.758 42.8667 654.158 37.3333 653.625 32H649.625C650.692 42.2667 651.825 53.3333 653.025 65.2C654.225 77.0667 655.425 89.6667 656.625 103C657.425 112.6 658.092 121.2 658.625 128.8C659.292 136.4 659.892 144 660.425 151.6C660.958 159.2 661.425 167.8 661.825 177.4C662.358 189.267 662.625 200.733 662.625 211.8V240H615.625V1.99999H681.825ZM817.531 181.2V1.99999H864.531V181.2C864.531 184.667 865.598 187.667 867.731 190.2C868.531 191.4 869.531 192.467 870.731 193.4C872.065 194.2 873.598 194.8 875.331 195.2C876.931 195.733 878.531 196 880.131 196C884.398 196 887.998 194.733 890.931 192.2C893.998 189.533 895.531 185.867 895.531 181.2V1.99999H942.531V181.2C942.531 196.133 938.931 208.533 931.731 218.4C927.998 223.467 923.665 227.733 918.731 231.2C913.798 234.533 907.998 237.2 901.331 239.2C894.931 241.067 887.865 242 880.131 242C871.998 242 864.731 241.067 858.331 239.2C852.065 237.2 846.465 234.533 841.531 231.2C831.131 224.133 824.065 214.267 820.331 201.6C818.465 195.333 817.531 188.533 817.531 181.2ZM1005.45 121.4C1005.45 129.533 1006.45 137.4 1008.45 145C1010.59 152.6 1013.85 159.8 1018.25 166.6C1022.12 172.6 1026.92 177.867 1032.65 182.4C1038.52 186.933 1044.92 190.267 1051.85 192.4C1059.05 194.8 1066.59 196 1074.45 196C1087.39 196 1098.79 193 1108.65 187C1118.39 181 1125.85 172.733 1131.05 162.2C1132.25 159.667 1133.32 157 1134.25 154.2C1135.19 151.267 1135.99 148.267 1136.65 145.2H1184.65C1183.59 156.8 1180.92 167.333 1176.65 176.8C1172.52 186.267 1167.19 194.933 1160.65 202.8C1146.92 219.333 1129.45 230.8 1108.25 237.2C1097.59 240.4 1086.45 242 1074.85 242C1063.25 242 1051.52 240.2 1039.65 236.6C1027.92 233 1016.52 227.067 1005.45 218.8C995.72 211.6 987.32 202.867 980.253 192.6C973.186 182.2 967.853 171.133 964.253 159.4C962.386 153.4 960.92 147.2 959.853 140.8C958.92 134.4 958.453 127.8 958.453 121C958.453 107.133 960.386 94.2 964.253 82.2C968.253 70.0667 973.653 59.0667 980.453 49.2C988.053 38.4 996.92 29.4 1007.05 22.2C1017.19 14.8667 1027.32 9.46665 1037.45 5.99998C1043.32 4.13333 1049.39 2.66666 1055.65 1.59999C1061.92 0.533325 1068.32 -9.53674e-06 1074.85 -9.53674e-06C1097.79 -9.53674e-06 1118.59 6.06665 1137.25 18.2C1146.19 24.0667 1154.05 31.1333 1160.85 39.4C1167.65 47.5333 1173.05 56.2667 1177.05 65.6C1181.05 75.2 1183.59 85.6 1184.65 96.8H1136.65C1135.59 90.8 1133.65 85.1333 1130.85 79.8C1128.19 74.3333 1125.05 69.6 1121.45 65.6C1117.72 61.6 1113.45 58.1333 1108.65 55.2C1103.85 52.1333 1098.59 49.8 1092.85 48.2C1086.85 46.7333 1080.72 46 1074.45 46C1065.92 46 1058.12 47.3333 1051.05 50C1043.99 52.5333 1037.92 55.7333 1032.85 59.6C1021.25 68.8 1013.25 81.0667 1008.85 96.4C1007.65 100.267 1006.79 104.333 1006.25 108.6C1005.72 112.733 1005.45 117 1005.45 121.4ZM1202.73 240V1.99999H1249.73V85.4H1284.73V1.99999H1331.73V240H1284.73V129.4H1249.73V240H1202.73ZM1420.46 162H1379.46C1379.46 154.4 1380.66 147.067 1383.06 140C1385.46 132.8 1388.66 125.333 1392.66 117.6C1394.53 113.733 1396.73 109.4 1399.26 104.6C1401.93 99.8 1404.46 95 1406.86 90.2C1409.26 85.2667 1411.26 80.6667 1412.86 76.4C1414.06 73.0667 1415 69.8 1415.66 66.6C1416.33 63.4 1416.66 60.2 1416.66 57C1416.66 54.6 1416.53 52.8 1416.26 51.6C1416 50.4 1415.53 49 1414.86 47.4C1414.33 46.0667 1413.53 45.0667 1412.46 44.4C1411.4 43.6 1410.33 43 1409.26 42.6C1408.6 42.3333 1407.86 42.2 1407.06 42.2C1406.4 42.0667 1405.66 42 1404.86 42C1396.73 42 1392.66 49.3333 1392.66 64V73.4H1348.66V55.8C1348.66 18.6 1367.33 -9.53674e-06 1404.66 -9.53674e-06C1411.73 -9.53674e-06 1418.33 0.733326 1424.46 2.2C1430.73 3.66665 1436.13 5.86665 1440.66 8.8C1449.86 14.8 1456.06 23.2 1459.26 34C1460.86 39.4667 1461.66 45.6667 1461.66 52.6C1461.66 62.3333 1460.2 71.4667 1457.26 80C1454.33 88.5333 1451 96.5333 1447.26 104C1445.26 107.867 1442.73 112.267 1439.66 117.2C1436.73 122.133 1433.86 127.067 1431.06 132C1428.26 136.933 1426.2 141.133 1424.86 144.6C1423.53 147.667 1422.46 150.667 1421.66 153.6C1420.86 156.4 1420.46 159.2 1420.46 162ZM1400.46 188.4C1406.33 188.4 1411.6 190.133 1416.26 193.6C1419.33 195.867 1421.53 198.2 1422.86 200.6C1424.33 203 1425.33 205 1425.86 206.6C1426.26 207.933 1426.6 209.333 1426.86 210.8C1427.13 212.267 1427.26 213.733 1427.26 215.2C1427.26 218.4 1426.73 221.333 1425.66 224C1424.73 226.667 1423.53 229 1422.06 231C1420.6 233.133 1418.66 235.067 1416.26 236.8C1413.86 238.533 1411.4 239.8 1408.86 240.6C1406.33 241.533 1403.53 242 1400.46 242C1394.73 242 1389.46 240.267 1384.66 236.8C1381.73 234.8 1379.46 232.6 1377.86 230.2C1376.4 227.8 1375.4 225.667 1374.86 223.8C1374.46 222.467 1374.13 221.067 1373.86 219.6C1373.6 218.133 1373.46 216.667 1373.46 215.2C1373.46 212 1373.93 209.067 1374.86 206.4C1375.93 203.733 1377.2 201.333 1378.66 199.2C1380.13 197.2 1382.06 195.333 1384.46 193.6C1386.86 191.867 1389.4 190.533 1392.06 189.6C1394.6 188.8 1397.4 188.4 1400.46 188.4Z" fill="#111111"/>
</svg>
